PathFileType	4	(X/Y/Z)	53_2_99_p1_0-227.trc
DataRate	CameraRate	NumFrames	NumMarkers	Units	OrigDataRate	OrigDataStartFrame	OrigNumFrames
60.0	60.0	6	27	m	60.0	114	228
Frame#	Time	RHip			RKnee			RAnkle			RBigToe			RSmallToe			RHeel			LHip			LKnee			LAnkle			LBigToe			LSmallToe			LHeel			Neck			Head			Nose			RShoulder			RElbow			RWrist			RThumb			RIndex			RPinky			LShoulder			LElbow			LWrist			LThumb			LIndex			LPinky			
		X1	Y1	Z1	X2	Y2	Z2	X3	Y3	Z3	X4	Y4	Z4	X5	Y5	Z5	X6	Y6	Z6	X7	Y7	Z7	X8	Y8	Z8	X9	Y9	Z9	X10	Y10	Z10	X11	Y11	Z11	X12	Y12	Z12	X13	Y13	Z13	X14	Y14	Z14	X15	Y15	Z15	X16	Y16	Z16	X17	Y17	Z17	X18	Y18	Z18	X19	Y19	Z19	X20	Y20	Z20	X21	Y21	Z21	X22	Y22	Z22	X23	Y23	Z23	X24	Y24	Z24	X25	Y25	Z25	X26	Y26	Z26	X27	Y27	Z27	
114	1.9	0.3979115888186499	0.6589316761488084	0.6775872343030457	0.3543281342914478	0.7017581267533879	1.1231094194290963	0.32311399025155685	0.8226241937469818	1.5264246196560767	0.30215474724936286	0.6536080663558478	1.5474795884481738	0.3598842299138223	0.680795885279564	1.5590384581612098	0.3128153814643325	0.9262592209527106	1.6178368912360188	0.21048770317305543	0.6117533626557546	0.6620643148352764	0.1876716174498247	0.711194919245583	1.1154516570833755	0.15638252352320028	0.8659626905943517	1.5446242108351746	0.16417488396768046	0.679821027393638	1.542622028426488	0.12374667208859129	0.6798502723835956	1.5319348461260438	0.16465882701872106	0.9143374298421408	1.5922967670890706	0.32840016622335166	0.7100767730775578	0.1962415930299679	0.39417564015204914	0.5457960619312371	-0.03823143295055745	0.35119719058517884	0.4960050496492549	0.12462470508629465	0.4541218317897815	0.7458814872774743	0.23988126516549962	0.4615756982882017	0.5426233016604718	0.431279006625805	0.46321755322202013	0.50176993075348	0.22358934447325515	0.39078563497077295	0.5821529586485231	0.14374642326120798	0.384674468334094	0.5225206084120302	0.1241535633689666	0.40621594092043767	0.48790109657880304	0.17693720289298379	0.19505655241731712	0.6549059269355213	0.21457030361134952	0.11750967314069802	0.7007389532665813	0.4783961453209146	0.26729073336893194	0.5511019924409959	0.40975360351375545	0.3712301481407704	0.5487374679360756	0.3963005160612188	0.3808412364809311	0.5213862246605563	0.4224843968831726	0.34434450801542554	0.5585068954349653	0.4704042613949093
115	1.9166666666666667	0.4011791166925249	0.6427850174306692	0.6757868583030933	0.3509056330283697	0.7027206819221329	1.1273067889900896	0.32418929391422924	0.8212709811607009	1.5221548258098663	0.2981620404303586	0.6409020985272179	1.5389594009202598	0.36021847267562795	0.6824055939352057	1.5595488787107394	0.31289468133117637	0.9265846383454638	1.6179557105249327	0.22217740528453025	0.6114946853491889	0.6622263531925617	0.18695325292687784	0.7119474878910388	1.1195307675545216	0.1563989844591276	0.865938343464093	1.5445856778377105	0.16360372236318185	0.6771416811429541	1.5380754741324536	0.12479612696379606	0.6784286167766924	1.5280293130134635	0.1648492609228505	0.9151767109325606	1.5927007078547646	0.3285298390911832	0.7099820308122939	0.196136409947953	0.3940607839232429	0.5468427798451297	-0.037994505024515866	0.355154276057518	0.5083629879986831	0.1230825679836088	0.45407499163896486	0.7321656444301977	0.2486448502634284	0.46591473648539466	0.5439668723945846	0.43135092268814995	0.4634239253946035	0.5021822226893291	0.22684643304525778	0.39587859032956413	0.5857246276928807	0.147352664366444	0.3879810750850194	0.5083510054932419	0.12190721203676132	0.4055704565614265	0.48580077575792174	0.17418859997991232	0.1984495981985106	0.6678838826307291	0.21431311310008772	0.11744057520568985	0.7004633673567923	0.478293361295303	0.2722212400707571	0.5518207441605713	0.40984513297290914	0.37274233701871456	0.5520030182514681	0.3971885756428577	0.38739496781374855	0.519707540530705	0.42800199526493127	0.34937228468491177	0.5610500323616892	0.4707860105312361
116	1.9333333333333333	0.401753296254392	0.6446626815179345	0.6798363114229083	0.3548107537411624	0.7038149987765216	1.1277154490704815	0.3241897989585022	0.8212273268236667	1.5221719420908868	0.29795377905088616	0.6402687149927879	1.5387600919916524	0.3651153329155212	0.6846030446049207	1.5607031208740618	0.3129004007024622	0.9262252461930178	1.617897206988002	0.22266944987270945	0.6136392257033166	0.6661520314127766	0.19331370102561138	0.698127525312378	1.116854328438315	0.15643773994094404	0.8658552610111527	1.5445336551267033	0.16111225588789743	0.6637374437809674	1.5326526571546053	0.13009200345288421	0.6797875830502031	1.5285639091933876	0.16493975283072837	0.915208416479099	1.5927395710076446	0.3324270229058226	0.6950419116645841	0.19671302788530043	0.39379556433252844	0.5466883952915254	-0.03833064917685505	0.35137523199061255	0.522001607006492	0.12181788947540448	0.45755471118203817	0.7192677808345046	0.24686362925998206	0.460881315134497	0.5423516111283737	0.4276922049948383	0.4638939366500126	0.503506433042535	0.22667837035650465	0.39133353663381276	0.5869078829176211	0.15305582513453778	0.3889704771841797	0.534877472821594	0.11920009021319301	0.4092324536131823	0.4978127163508273	0.17214584853814724	0.19859772616528337	0.6681277068888544	0.21834523815958515	0.11746418071136673	0.7001156063237339	0.4782828148115512	0.2760598527426628	0.538648173573613	0.40947978837191334	0.37811021577136084	0.5448759911892616	0.396950211264806	0.38962691432571156	0.5272661582275374	0.4244888329895362	0.34937065791640703	0.5602728048784544	0.46852776787574424
117	1.95	0.405011540740593	0.6292496033761057	0.6781890400568872	0.35087043829205544	0.7024753835875731	1.127295914107383	0.32423100655415327	0.821249146656442	1.5221074088382187	0.2980078558328339	0.6407951127605483	1.538969692164089	0.3611947992926891	0.6809970035703135	1.5549015075928934	0.3131101989596682	0.9262964565142889	1.6178697803155893	0.22271706696885946	0.6136586605392816	0.6662192048974689	0.19226109356234894	0.7124068897256525	1.1157379087255999	0.15652159645297287	0.865958829519529	1.5444530605732498	0.16363678123899758	0.6769547866802689	1.5380785240638808	0.12479520542962794	0.6784127944138383	1.5281038792735906	0.16504429838229076	0.9151348471187523	1.5926791656460417	0.3327195865011673	0.6953466863489952	0.1963642724217387	0.39336799533941647	0.5465819055321889	-0.038359946251336936	0.3512671556298974	0.5218530439698432	0.12158194910296427	0.4621260676719553	0.7353357721448094	0.2534056303969786	0.45637657614521343	0.5308481309441628	0.42722403877853465	0.4635096417130408	0.5029379899817275	0.22656386588598634	0.39114240092822006	0.5847179563813835	0.14696614354868684	0.38016952774439067	0.5281435582379941	0.1167666721945775	0.40045207907587954	0.4924248841453991	0.1765702376162913	0.19848826005083267	0.667843216816413	0.21831624008476466	0.12210796361266565	0.68682685355289	0.48131509861229016	0.2713439397600006	0.5374139310264814	0.4094251630788733	0.37696151495829106	0.5419001968456334	0.39638982085399266	0.38985737315642865	0.5288370302593486	0.42586856445433513	0.34417476360324756	0.5566422372644835	0.46871364008726574
118	1.9666666666666666	0.4050246284864177	0.6291830671328495	0.6783137699559013	0.35070042868641865	0.7022512673510237	1.1272491300610603	0.3242151661184349	0.8212855191070441	1.5221512966945114	0.3064163786174771	0.6565496708313636	1.5455829428352006	0.3664408302224887	0.6842891559536927	1.5563229432720405	0.31296815783450177	0.9259970591674724	1.6178021285224728	0.22268494202160688	0.6135350107176751	0.6663411671191076	0.19283033320660653	0.7151789278678004	1.121236205544388	0.1565230685079257	0.8659616135236959	1.544492560665197	0.1634832400979442	0.6782035094834266	1.5332295338839435	0.1301448520685843	0.6798641699636505	1.5286503674899008	0.16501230562973376	0.9152884002735173	1.592751943052927	0.33295113782736724	0.6952581791182747	0.19618528917986958	0.39041768397561133	0.560788532205566	-0.046450410457989325	0.3540613038903884	0.523467686728138	0.12114774543896832	0.46250542982177056	0.7373412319547815	0.2580109108305485	0.46411392106284716	0.5414575227286379	0.4237719483692159	0.4630753963178097	0.5024362136231865	0.22646779386908958	0.3900858952725831	0.5813451301987185	0.1447407485692651	0.3839067228658257	0.5146716441495186	0.11462966352169335	0.3997057719753089	0.4882897443785987	0.16852741517509567	0.19869018247862133	0.6684713748923738	0.21835174615440503	0.12215663851226896	0.6865251599732962	0.48132133570672403	0.2712377483389432	0.537144022312161	0.409503552983386	0.37710471949448254	0.5423742073766743	0.4043817734403016	0.3858992270623052	0.5140388914035399	0.423441035101453	0.34447009913160115	0.5586773437912124	0.4707646003161969
119	1.9833333333333334	0.4050498735711844	0.6292596679645323	0.6782425708165601	0.35094020462741093	0.702476507210259	1.127180753725809	0.3242126277846098	0.8212804374355318	1.522149908232878	0.3025854197205944	0.6421926508693755	1.5397062160935395	0.36617313608177166	0.6826103025295749	1.555773928119396	0.3138855909625839	0.9288210662753296	1.623461197685451	0.22229975741562358	0.6114804064646516	0.6622456813026537	0.1922629520565746	0.7117179863249372	1.11954795356189	0.15649660944198948	0.8660252974713136	1.544565576875445	0.16741382478938305	0.6625062478739889	1.5269143563199001	0.13438039941730967	0.6641138975242129	1.5224311770225347	0.16506380216198582	0.9158948791927094	1.5931436122883027	0.33284781227414706	0.6950872531779908	0.19629646570846784	0.39014317015087246	0.5590589501081794	-0.050115338335381905	0.3561952239041617	0.5349390716577127	0.12060325359319622	0.4622722944430625	0.7352514400234652	0.2567170295566103	0.4600715424619251	0.5404711014567882	0.4235958504299325	0.46557064914999324	0.4861762840846046	0.22043294878336417	0.3903261599614322	0.5809662889554333	0.14407517294343092	0.388023736404877	0.5161606827147973	0.11792244079275191	0.4044864763855367	0.4913538205605896	0.16845423474707744	0.19837515987722018	0.6674873865748566	0.21832705925140494	0.12224291065943042	0.6861952097466234	0.4814510369085813	0.27130708914333984	0.5518581656885218	0.4133553481058788	0.3740060220975247	0.5569270371247986	0.40447752096181855	0.38334482211858656	0.5290199742267648	0.42400050391478705	0.34174235340103687	0.563325101887459	0.4692126950181053
